<svg xmlns="http://www.w3.org/2000/svg" width="231" height="250" fill="none" viewBox="0 0 231 250">
  <path stroke="#000" stroke-miterlimit="10" stroke-width=".8" d="M155.929 16.378H55.071L4.641 95l50.43 78.622h100.858L206.358 95l-50.429-78.622Z"/>
  <path stroke="#000" stroke-miterlimit="10" stroke-width=".8" d="M156.098 23.408H64.271L18.357 95l45.914 71.592h91.827L202.011 95l-45.913-71.592Z"/>
  <path stroke="#000" stroke-miterlimit="10" stroke-width=".8" d="M156.267 30.438H73.47L32.072 95l41.398 64.562h82.797L197.665 95l-41.398-64.562Z"/>
  <path stroke="#000" stroke-miterlimit="10" stroke-width=".8" d="M156.435 37.468H82.67L45.787 95l36.883 57.532h73.765L193.318 95l-36.883-57.532Z"/>
  <path stroke="#000" stroke-miterlimit="10" stroke-width=".8" d="M156.646 44.498H91.869L59.502 95l32.367 50.502h64.777L189.014 95l-32.368-50.502Z"/>
  <path stroke="#000" stroke-miterlimit="10" stroke-width=".8" d="M156.815 51.528h-55.746L73.217 95l27.852 43.472h55.746L184.667 95l-27.852-43.472Z"/>
  <path stroke="#000" stroke-miterlimit="10" stroke-width=".8" d="M156.984 58.596h-46.715L86.932 95l23.337 36.404h46.715L180.321 95l-23.337-36.404Z"/>
  <path stroke="#000" stroke-miterlimit="10" stroke-width=".8" d="M157.153 65.626h-37.685L100.647 95l18.821 29.374h37.685L175.974 95l-18.821-29.374Z"/>
  <path stroke="#000" stroke-miterlimit="10" stroke-width=".8" d="M157.322 72.656h-28.654L114.362 95l14.306 22.344h28.654L171.67 95l-14.348-22.344Z"/>
  <path stroke="#000" stroke-miterlimit="10" stroke-width=".8" d="M157.533 79.686h-19.666L128.077 95l9.79 15.314h19.666L167.323 95l-9.79-15.314Z"/>
  <path fill="#000" d="M37.76 214v-16.8h7.272c1.056 0 2 .24 2.832.72a5.28 5.28 0 0 1 1.968 1.968c.48.816.72 1.752.72 2.808 0 1.072-.24 2.04-.72 2.904a5.359 5.359 0 0 1-1.968 2.04c-.832.496-1.776.744-2.832.744h-3.168V214H37.76Zm4.056-9.24h2.664c.352 0 .664-.08.936-.24a2.022 2.022 0 0 0 .96-1.752c0-.4-.088-.744-.264-1.032a1.868 1.868 0 0 0-.696-.672 1.811 1.811 0 0 0-.936-.24h-2.664v3.936Zm19.634 9.48c-1.344 0-2.56-.216-3.648-.648a8.248 8.248 0 0 1-2.783-1.824 8.008 8.008 0 0 1-1.8-2.76c-.416-1.056-.625-2.208-.625-3.456 0-1.248.224-2.4.672-3.456a8.433 8.433 0 0 1 1.873-2.76 8.664 8.664 0 0 1 2.88-1.824c1.12-.432 2.343-.648 3.672-.648.911 0 1.776.12 2.591.36a9 9 0 0 1 2.257.984c.688.416 1.255.888 1.704 1.416l-2.52 2.64a6.808 6.808 0 0 0-1.873-1.272c-.656-.32-1.4-.48-2.232-.48-.688 0-1.328.128-1.92.384a4.553 4.553 0 0 0-1.535 1.056 4.733 4.733 0 0 0-1.008 1.608 5.378 5.378 0 0 0-.36 1.992 5.082 5.082 0 0 0 1.44 3.6c.464.448 1 .8 1.608 1.056a5.02 5.02 0 0 0 1.967.384c.496 0 .953-.072 1.368-.216a4.03 4.03 0 0 0 1.129-.624c.335-.272.591-.584.767-.936.192-.368.288-.76.288-1.176v-.624l.529.816h-4.585v-3.24h7.897c.031.176.055.416.072.72.015.304.023.6.023.888.016.272.025.488.025.648 0 1.088-.2 2.088-.6 3a6.666 6.666 0 0 1-1.656 2.328 7.614 7.614 0 0 1-2.496 1.536c-.96.352-2 .528-3.12.528Zm16.527-.24 6.648-16.8h3.48l6.6 16.8h-4.128l-3.192-8.52c-.112-.336-.24-.696-.384-1.08a54.24 54.24 0 0 1-.384-1.2 85.313 85.313 0 0 1-.36-1.2 22.421 22.421 0 0 1-.288-1.08l.696-.024c-.096.4-.2.792-.312 1.176a31.798 31.798 0 0 1-.768 2.304c-.128.368-.264.752-.408 1.152L82.009 214h-4.032Zm3.168-3.216 1.296-3.12h7.68l1.296 3.12H81.145ZM96.415 214v-12.744h3.672l.144 2.592-.792.288a3.845 3.845 0 0 1 .936-1.56 5.303 5.303 0 0 1 1.656-1.152 4.858 4.858 0 0 1 2.016-.432c.96 0 1.768.2 2.424.6.656.384 1.144.968 1.464 1.752.336.768.504 1.72.504 2.856v7.8h-3.864v-7.512c0-.512-.072-.936-.216-1.272a1.488 1.488 0 0 0-.648-.744c-.288-.16-.648-.232-1.08-.216a2.56 2.56 0 0 0-.936.168 2.086 2.086 0 0 0-1.248 1.128 2.134 2.134 0 0 0-.168.864V214h-3.864Zm22.05 0v-7.824c0-.656-.184-1.136-.552-1.44-.352-.32-.848-.48-1.488-.48-.624 0-1.184.12-1.68.36-.48.224-.944.6-1.392 1.128l-2.304-2.232a8.65 8.65 0 0 1 2.64-1.848c.992-.448 2.072-.672 3.24-.672 1.072 0 2 .16 2.784.48.784.32 1.392.808 1.824 1.464.432.656.648 1.488.648 2.496V214h-3.72Zm-3.312.24c-.8 0-1.528-.16-2.184-.48a3.984 3.984 0 0 1-1.536-1.32c-.368-.576-.552-1.248-.552-2.016 0-.656.12-1.232.36-1.728s.592-.904 1.056-1.224c.48-.336 1.072-.584 1.776-.744.72-.176 1.552-.264 2.496-.264h3.864l-.216 2.424h-3.552c-.336 0-.632.032-.888.096a1.581 1.581 0 0 0-.648.264 1.242 1.242 0 0 0-.408.408c-.08.16-.12.352-.12.576 0 .24.064.448.192.624s.296.312.504.408c.224.096.48.144.768.144.416 0 .808-.064 1.176-.192.384-.144.72-.344 1.008-.6.304-.256.544-.552.72-.888l.672 1.728a6.217 6.217 0 0 1-1.224 1.44 5.584 5.584 0 0 1-1.536.984c-.544.24-1.12.36-1.728.36Zm10.114-.24v-17.76h3.864V214h-3.864Zm8.569 5.52 2.904-6.816.048 2.016-6.168-13.464h4.368l2.688 6.432c.144.304.28.648.408 1.032.128.384.224.744.288 1.08l-.552.312c.096-.24.2-.544.312-.912l.408-1.176 2.352-6.768h4.392l-5.4 12.744-2.184 5.52h-3.864Zm14.33-5.52v-15.96h3.864V214h-3.864Zm-2.256-9.36v-3.384h8.568v3.384h-8.568Zm11.002 9.36v-12.744h3.864V214h-3.864Zm1.944-15.264c-.736 0-1.312-.168-1.728-.504-.4-.352-.6-.848-.6-1.488 0-.592.208-1.072.624-1.44.416-.368.984-.552 1.704-.552.704 0 1.256.176 1.656.528.416.336.624.824.624 1.464 0 .592-.208 1.072-.624 1.44-.4.368-.952.552-1.656.552Zm11.143 15.504c-1.232 0-2.344-.288-3.336-.864a6.253 6.253 0 0 1-2.304-2.352c-.56-1.008-.84-2.136-.84-3.384 0-1.28.28-2.416.84-3.408a6.204 6.204 0 0 1 2.304-2.376c.992-.576 2.104-.864 3.336-.864 1.136 0 2.176.208 3.12.624.96.4 1.712.952 2.256 1.656l-2.088 2.544a3.78 3.78 0 0 0-.768-.744c-.304-.224-.64-.4-1.008-.528a3.481 3.481 0 0 0-1.152-.192c-.608 0-1.144.144-1.608.432a2.783 2.783 0 0 0-1.08 1.152c-.256.496-.384 1.056-.384 1.68 0 .608.128 1.16.384 1.656.272.48.64.864 1.104 1.152.464.288.984.432 1.56.432.416 0 .8-.056 1.152-.168.352-.112.672-.272.96-.48.304-.208.584-.456.84-.744l2.088 2.544c-.544.672-1.304 1.216-2.28 1.632-.976.4-2.008.6-3.096.6Zm11.782 0c-1.216 0-2.304-.192-3.264-.576-.96-.4-1.728-.944-2.304-1.632l2.352-2.016a4.792 4.792 0 0 0 1.68 1.104c.624.224 1.216.336 1.776.336.208 0 .392-.024.552-.072.16-.048.296-.112.408-.192.128-.096.224-.2.288-.312a.953.953 0 0 0 .096-.432c0-.32-.136-.56-.408-.72-.128-.08-.36-.176-.696-.288a11.06 11.06 0 0 0-1.296-.384 10.41 10.41 0 0 1-1.968-.696c-.544-.272-.992-.584-1.344-.936a3.446 3.446 0 0 1-.744-1.104 3.85 3.85 0 0 1-.24-1.392c0-.784.232-1.472.696-2.064.48-.592 1.104-1.048 1.872-1.368a6.158 6.158 0 0 1 2.496-.504c.704 0 1.368.08 1.992.24.64.16 1.232.384 1.776.672.56.288 1.056.632 1.488 1.032l-2.04 2.28a4.43 4.43 0 0 0-.96-.72 5.777 5.777 0 0 0-1.104-.528 2.843 2.843 0 0 0-1.032-.216c-.24 0-.456.024-.648.072a1.065 1.065 0 0 0-.456.192.836.836 0 0 0-.264.312.76.76 0 0 0-.096.384c0 .176.04.336.12.48.096.128.224.248.384.36.144.08.392.184.744.312.368.128.848.272 1.44.432.752.208 1.392.448 1.92.72.544.256.976.56 1.296.912.272.272.464.592.576.96.128.352.192.736.192 1.152 0 .816-.232 1.544-.696 2.184-.448.624-1.072 1.12-1.872 1.488-.784.352-1.688.528-2.712.528ZM2.681 244v-16.8h6.575c1.2 0 2.28.2 3.24.6a6.86 6.86 0 0 1 2.496 1.728 7.809 7.809 0 0 1 1.584 2.664c.368 1.024.552 2.16.552 3.408 0 1.248-.184 2.392-.552 3.432a7.809 7.809 0 0 1-1.584 2.664 6.772 6.772 0 0 1-2.472 1.704c-.976.4-2.064.6-3.264.6H2.68Zm2.591-2.232-.072-.264h3.936c.848 0 1.6-.136 2.256-.408a4.498 4.498 0 0 0 1.68-1.152c.464-.512.816-1.136 1.056-1.872.24-.736.36-1.56.36-2.472 0-.912-.12-1.728-.36-2.448-.24-.736-.592-1.36-1.056-1.872a4.628 4.628 0 0 0-1.68-1.176c-.656-.272-1.408-.408-2.256-.408H5.128l.144-.216v12.288ZM27.473 244v-8.208c0-.704-.256-1.272-.768-1.704-.496-.448-1.128-.672-1.896-.672-.704 0-1.344.144-1.92.432-.56.288-1.072.728-1.536 1.32l-1.608-1.608c.752-.816 1.56-1.424 2.424-1.824.88-.4 1.824-.6 2.832-.6.96 0 1.792.16 2.496.48.704.32 1.248.792 1.632 1.416.384.608.576 1.352.576 2.232V244h-2.232Zm-3.768.24c-.816 0-1.544-.16-2.184-.48a3.984 3.984 0 0 1-1.536-1.32c-.368-.576-.552-1.248-.552-2.016 0-.672.12-1.264.36-1.776s.592-.936 1.056-1.272c.48-.336 1.072-.592 1.776-.768.72-.176 1.544-.264 2.472-.264h3.504l-.216 1.968h-3.6c-.48 0-.912.048-1.296.144-.368.08-.688.216-.96.408a1.71 1.71 0 0 0-.576.648c-.128.24-.192.528-.192.864 0 .352.088.664.264.936.176.256.416.456.72.6a2.44 2.44 0 0 0 1.056.216 4.61 4.61 0 0 0 1.632-.288 4.686 4.686 0 0 0 1.392-.84c.416-.352.736-.744.96-1.176l.576 1.608a5.773 5.773 0 0 1-1.248 1.464 6.21 6.21 0 0 1-1.608.984c-.576.24-1.176.36-1.8.36ZM34.39 244v-15.816h2.472V244H34.39Zm-2.616-10.2v-2.4h8.016v2.4h-8.016ZM49.387 244v-8.208c0-.704-.256-1.272-.768-1.704-.496-.448-1.128-.672-1.896-.672-.704 0-1.344.144-1.92.432-.56.288-1.072.728-1.536 1.32l-1.608-1.608c.752-.816 1.56-1.424 2.424-1.824.88-.4 1.824-.6 2.832-.6.96 0 1.792.16 2.496.48.704.32 1.248.792 1.632 1.416.384.608.576 1.352.576 2.232V244h-2.232Zm-3.768.24c-.816 0-1.544-.16-2.184-.48a3.984 3.984 0 0 1-1.536-1.32c-.368-.576-.552-1.248-.552-2.016 0-.672.12-1.264.36-1.776s.592-.936 1.056-1.272c.48-.336 1.072-.592 1.776-.768.72-.176 1.544-.264 2.472-.264h3.504l-.216 1.968h-3.6c-.48 0-.912.048-1.296.144-.368.08-.688.216-.96.408a1.71 1.71 0 0 0-.576.648c-.128.24-.192.528-.192.864 0 .352.088.664.264.936.176.256.416.456.72.6a2.44 2.44 0 0 0 1.056.216 4.61 4.61 0 0 0 1.632-.288 4.686 4.686 0 0 0 1.392-.84c.416-.352.736-.744.96-1.176l.576 1.608a5.773 5.773 0 0 1-1.248 1.464 6.21 6.21 0 0 1-1.608.984c-.576.24-1.176.36-1.8.36ZM61.47 244v-12.6h2.496v3.96l-.24-.96a4.5 4.5 0 0 1 .888-1.656c.432-.496.92-.888 1.464-1.176a3.736 3.736 0 0 1 1.728-.432c.272 0 .528.024.768.072.256.048.456.104.6.168l-.648 2.688a3.438 3.438 0 0 0-.648-.192 2.436 2.436 0 0 0-.672-.096c-.432 0-.848.088-1.248.264-.384.16-.728.392-1.032.696a3.35 3.35 0 0 0-.696 1.032 3.017 3.017 0 0 0-.264 1.272V244H61.47Zm14.096.24c-.896 0-1.68-.208-2.352-.624-.656-.416-1.168-1-1.536-1.752-.352-.752-.528-1.648-.528-2.688V231.4h2.472v7.104c0 1.104.256 1.976.768 2.616.528.64 1.256.96 2.184.96.464 0 .888-.072 1.272-.216a3.01 3.01 0 0 0 .984-.648c.288-.272.512-.6.672-.984.16-.384.24-.8.24-1.248V231.4h2.472V244h-2.472v-2.64l.432-.288a4.132 4.132 0 0 1-.984 1.608c-.448.48-.984.864-1.608 1.152a4.99 4.99 0 0 1-2.016.408ZM85.68 244v-12.6h2.472v2.592l-.432.288c.16-.56.472-1.072.936-1.536a5.303 5.303 0 0 1 1.656-1.152 4.54 4.54 0 0 1 1.968-.456c.96 0 1.76.192 2.4.576.64.368 1.12.936 1.44 1.704.32.768.48 1.736.48 2.904V244h-2.47v-7.512c0-.72-.096-1.312-.288-1.776-.192-.48-.488-.824-.888-1.032-.4-.224-.896-.32-1.488-.288-.48 0-.92.08-1.32.24-.4.144-.752.352-1.056.624-.288.272-.52.592-.696.96a2.75 2.75 0 0 0-.24 1.152V244h-2.472Zm18.474.24c-1.056 0-2.008-.184-2.856-.552a5.31 5.31 0 0 1-2.112-1.632l1.68-1.44c.48.56 1 .968 1.56 1.224.576.24 1.224.36 1.944.36.288 0 .552-.032.792-.096a1.91 1.91 0 0 0 .648-.336c.192-.144.336-.312.432-.504.096-.208.144-.432.144-.672 0-.416-.152-.752-.456-1.008-.16-.112-.416-.232-.768-.36a9.838 9.838 0 0 0-1.32-.432c-.928-.24-1.688-.512-2.28-.816-.592-.304-1.048-.648-1.368-1.032a3.086 3.086 0 0 1-.528-.984 4.104 4.104 0 0 1-.168-1.2c0-.704.2-1.328.6-1.872.4-.544.936-.968 1.608-1.272.688-.32 1.456-.48 2.304-.48.592 0 1.176.08 1.752.24.592.16 1.136.392 1.632.696.496.304.912.664 1.248 1.08l-1.416 1.56a5.366 5.366 0 0 0-1.008-.792 4.6 4.6 0 0 0-1.08-.552 3.094 3.094 0 0 0-1.008-.192c-.336 0-.64.032-.912.096a2.12 2.12 0 0 0-.696.288 1.311 1.311 0 0 0-.408.48 1.429 1.429 0 0 0-.144.648c.016.208.064.408.144.6.096.176.224.328.384.456.176.128.44.264.792.408.352.144.8.28 1.344.408.8.208 1.456.44 1.968.696.528.24.944.52 1.248.84.32.304.544.656.672 1.056s.192.848.192 1.344a3.24 3.24 0 0 1-.624 1.944c-.4.56-.944 1-1.632 1.32-.688.32-1.456.48-2.304.48Zm15.571-.24v-15.816h2.472V244h-2.472Zm-2.616-10.2v-2.4h8.016v2.4h-8.016Zm10.266 10.2v-17.76h2.472v7.752l-.432.288c.16-.56.472-1.072.936-1.536a5.303 5.303 0 0 1 1.656-1.152 4.54 4.54 0 0 1 1.968-.456c.96 0 1.76.192 2.4.576.64.368 1.12.936 1.44 1.704.32.768.48 1.736.48 2.904V244h-2.472v-7.512c0-.72-.096-1.312-.288-1.776-.192-.48-.488-.824-.888-1.032-.4-.224-.896-.32-1.488-.288-.48 0-.92.08-1.32.24-.4.144-.752.352-1.056.624-.288.272-.52.592-.696.96a2.75 2.75 0 0 0-.24 1.152V244h-2.472Zm20.154.24c-1.296 0-2.448-.272-3.456-.816a6.31 6.31 0 0 1-2.352-2.28c-.56-.96-.84-2.064-.84-3.312 0-.992.16-1.896.48-2.712.32-.816.76-1.52 1.32-2.112a5.791 5.791 0 0 1 2.04-1.392 6.625 6.625 0 0 1 2.592-.504c.816 0 1.576.16 2.28.48a5.432 5.432 0 0 1 1.824 1.272 5.379 5.379 0 0 1 1.2 1.944c.288.736.424 1.544.408 2.424l-.024 1.056h-10.296l-.552-1.968h8.712l-.36.408v-.576a2.78 2.78 0 0 0-.528-1.416 3.263 3.263 0 0 0-2.664-1.344c-.864 0-1.592.168-2.184.504-.592.32-1.04.8-1.344 1.44-.304.624-.456 1.4-.456 2.328 0 .88.184 1.648.552 2.304.368.64.888 1.136 1.56 1.488.672.352 1.448.528 2.328.528.624 0 1.2-.104 1.728-.312.544-.208 1.128-.584 1.752-1.128l1.248 1.752c-.384.384-.856.72-1.416 1.008a8.89 8.89 0 0 1-1.752.696c-.608.16-1.208.24-1.8.24Zm18.005-.24-4.296-12.6 2.496-.024 3.072 9.432-.552-.048 3.336-7.368h1.488l3.36 7.392-.648.048 3.096-9.432h2.496l-4.248 12.6h-1.704l-3.504-8.016.552.072-3.264 7.944h-1.68Zm21.412.24c-1.232 0-2.336-.28-3.312-.84a6.363 6.363 0 0 1-2.28-2.328c-.56-.992-.84-2.12-.84-3.384 0-1.264.28-2.384.84-3.36a6.129 6.129 0 0 1 2.28-2.328c.976-.576 2.08-.864 3.312-.864 1.216 0 2.304.288 3.264.864a6.077 6.077 0 0 1 2.304 2.328c.56.976.84 2.096.84 3.36 0 1.264-.28 2.392-.84 3.384a6.305 6.305 0 0 1-2.304 2.328c-.96.56-2.048.84-3.264.84Zm0-2.256c.752 0 1.424-.184 2.016-.552a4.029 4.029 0 0 0 1.392-1.536c.336-.656.496-1.392.48-2.208.016-.832-.144-1.568-.48-2.208a3.81 3.81 0 0 0-1.392-1.536c-.592-.368-1.264-.552-2.016-.552s-1.432.192-2.04.576a3.81 3.81 0 0 0-1.392 1.536c-.336.64-.496 1.368-.48 2.184-.016.816.144 1.552.48 2.208.336.64.8 1.152 1.392 1.536a3.863 3.863 0 0 0 2.04.552Zm9.101 2.016v-12.6h2.496v3.96l-.24-.96a4.5 4.5 0 0 1 .888-1.656c.432-.496.92-.888 1.464-1.176a3.736 3.736 0 0 1 1.728-.432c.272 0 .528.024.768.072.256.048.456.104.6.168l-.648 2.688a3.438 3.438 0 0 0-.648-.192 2.436 2.436 0 0 0-.672-.096c-.432 0-.848.088-1.248.264-.384.16-.728.392-1.032.696a3.35 3.35 0 0 0-.696 1.032 3.017 3.017 0 0 0-.264 1.272V244h-2.496Zm9.728 0v-17.76h2.472V244h-2.472Zm10.997.24c-1.152 0-2.184-.28-3.096-.84a6.245 6.245 0 0 1-2.136-2.328c-.528-.992-.792-2.12-.792-3.384 0-1.264.256-2.384.768-3.36.528-.992 1.24-1.768 2.136-2.328.896-.576 1.912-.864 3.048-.864a5.26 5.26 0 0 1 1.8.312c.592.192 1.12.464 1.584.816.464.336.824.712 1.08 1.128.272.4.408.808.408 1.224l-.72.048v-8.424h2.472V244h-2.472v-3h.48c0 .384-.128.768-.384 1.152-.256.368-.6.712-1.032 1.032-.416.32-.904.576-1.464.768a5.012 5.012 0 0 1-1.68.288Zm.336-2.136c.752 0 1.416-.192 1.992-.576a3.873 3.873 0 0 0 1.344-1.56c.336-.672.504-1.432.504-2.28 0-.848-.168-1.6-.504-2.256-.32-.672-.768-1.2-1.344-1.584-.576-.384-1.24-.576-1.992-.576s-1.416.192-1.992.576c-.576.384-1.032.912-1.368 1.584-.32.656-.48 1.408-.48 2.256 0 .848.16 1.608.48 2.28a4.055 4.055 0 0 0 1.368 1.56c.576.384 1.24.576 1.992.576Zm9.979-3.888a147.007 147.007 0 0 1-.312-3.12c-.08-1.088-.144-2.16-.192-3.216a66.22 66.22 0 0 1-.072-3v-1.68h2.592v1.68c0 .992-.024 2.032-.072 3.12a71.8 71.8 0 0 1-.216 3.24 67.39 67.39 0 0 1-.288 2.976h-1.44Zm.648 6.048c-.528 0-.936-.152-1.224-.456-.288-.32-.432-.768-.432-1.344 0-.528.152-.96.456-1.296.304-.336.704-.504 1.2-.504.528 0 .936.16 1.224.48.288.304.432.744.432 1.32 0 .528-.152.96-.456 1.296-.304.336-.704.504-1.2.504Z"/>
</svg>
